<svg width="20" height="20" viewBox="0 0 20 20" fill="none" xmlns="http://www.w3.org/2000/svg">
<path d="M15.6119 15.7932L15.3458 15.3699L15.6119 15.7932ZM16.0397 14.9956L15.5397 14.9956V14.9956H16.0397ZM9.09964 18.7109L8.81948 19.125L9.09964 18.7109ZM10.9187 18.7426L11.1847 19.166L10.9187 18.7426ZM1.21241 6.42135L0.944614 5.99912L1.21241 6.42135ZM1.21241 7.21711L0.944615 7.63934H0.944615L1.21241 7.21711ZM10.4456 12.5079L10.7134 12.9301L10.4456 12.5079ZM9.55441 12.5079L9.82221 12.0856L9.55441 12.5079ZM18.7876 6.42135L19.0554 5.99912L18.7876 6.42135ZM18.7876 7.21711L18.5198 6.79487L18.7876 7.21711ZM4.79283 15.7973L5.073 15.3832V15.3832L4.79283 15.7973ZM10.4456 1.13059L10.1778 1.55283L10.4456 1.13059ZM9.55441 1.13059L9.82221 1.55283L9.55441 1.13059ZM19.3782 6.80381C19.3782 6.52767 19.1543 6.30381 18.8782 6.30381C18.602 6.30381 18.3782 6.52767 18.3782 6.80381H19.3782ZM18.3782 11.806C18.3782 12.0822 18.602 12.306 18.8782 12.306C19.1543 12.306 19.3782 12.0822 19.3782 11.806H18.3782ZM10.1778 1.55283L18.5198 6.84359L19.0554 5.99912L10.7134 0.70835L10.1778 1.55283ZM18.5198 6.79487L10.1778 12.0856L10.7134 12.9301L19.0554 7.63934L18.5198 6.79487ZM1.48021 6.84359L9.82221 1.55283L9.28662 0.70835L0.944614 5.99912L1.48021 6.84359ZM9.82221 12.0856L4.65715 8.80979L4.12156 9.65426L9.28662 12.9301L9.82221 12.0856ZM4.65715 8.80979L1.48021 6.79487L0.944615 7.63934L4.12156 9.65426L4.65715 8.80979ZM3.88936 9.23203V15.0155H4.88936V9.23203H3.88936ZM4.51267 16.2114L8.81948 19.125L9.37981 18.2967L5.073 15.3832L4.51267 16.2114ZM11.1847 19.166L15.8779 16.2166L15.3458 15.3699L10.6526 18.3193L11.1847 19.166ZM16.5397 14.9956L16.5397 9.23203H15.5397L15.5397 14.9956L16.5397 14.9956ZM15.8779 16.2166C16.2967 15.9534 16.5397 15.4856 16.5397 14.9956H15.5397C15.5397 15.161 15.4574 15.2998 15.3458 15.3699L15.8779 16.2166ZM8.81948 19.125C9.53572 19.6095 10.4528 19.6259 11.1847 19.166L10.6526 18.3193C10.2571 18.5678 9.76854 18.5597 9.37981 18.2967L8.81948 19.125ZM0.944614 5.99912C0.351794 6.3751 0.351797 7.26336 0.944615 7.63934L1.48021 6.79487C1.48847 6.80011 1.49479 6.80781 1.49795 6.81397C1.50044 6.81883 1.5 6.82054 1.5 6.81923C1.5 6.81792 1.50044 6.81963 1.49795 6.82449C1.49479 6.83065 1.48847 6.83835 1.48021 6.84359L0.944614 5.99912ZM10.1778 12.0856C10.0667 12.1561 9.93326 12.1561 9.82221 12.0856L9.28662 12.9301C9.72463 13.2079 10.2754 13.2079 10.7134 12.9301L10.1778 12.0856ZM18.5198 6.84359C18.5115 6.83835 18.5052 6.83065 18.5021 6.82449C18.4996 6.81963 18.5 6.81792 18.5 6.81923C18.5 6.82054 18.4996 6.81883 18.5021 6.81397C18.5052 6.80781 18.5115 6.80011 18.5198 6.79487L19.0554 7.63934C19.6482 7.26336 19.6482 6.3751 19.0554 5.99912L18.5198 6.84359ZM3.88936 15.0155C3.88936 15.4896 4.11677 15.9436 4.51267 16.2114L5.073 15.3832C4.96634 15.311 4.88936 15.1752 4.88936 15.0155H3.88936ZM10.7134 0.70835C10.2754 0.430551 9.72463 0.430549 9.28662 0.70835L9.82221 1.55283C9.93326 1.48239 10.0667 1.48239 10.1778 1.55283L10.7134 0.70835ZM18.3782 6.80381V11.806H19.3782V6.80381H18.3782Z" fill="black"/>
</svg>
