<svg xmlns="http://www.w3.org/2000/svg" width="12" height="19" viewBox="0 0 12 19" fill="none">
    <path
            d="M6.00144 18.9999C5.93712 19.001 5.87331 18.9884 5.8141 18.9631C5.7549 18.9378 5.70159 18.9003 5.65771 18.853L0.107687 12.9433C0.0522869 12.886 0.0161294 12.8126 0.00426356 12.7336C-0.00760227 12.6546 0.00544862 12.5738 0.0415525 12.5026C0.0809537 12.4283 0.139985 12.3665 0.212159 12.3238C0.284332 12.2811 0.366803 12.2592 0.450525 12.2607H2.47068V0.406633C2.47734 0.292776 2.52851 0.186234 2.61302 0.110161C2.69753 0.0340866 2.80854 -0.00532061 2.92182 0.000578471H9.07849C9.19176 -0.00532061 9.30278 0.0340866 9.38729 0.110161C9.4718 0.186234 9.52297 0.292776 9.52962 0.406633V12.2607H11.5497C11.6334 12.2593 11.7159 12.2812 11.7881 12.3239C11.8603 12.3665 11.9193 12.4284 11.9588 12.5026C11.9948 12.5739 12.0076 12.6548 11.9956 12.7338C11.9836 12.8129 11.9473 12.8861 11.8917 12.9433L6.34255 18.853C6.29896 18.9 6.24615 18.9373 6.18741 18.9626C6.12868 18.9879 6.06533 19.0006 6.00144 18.9999ZM1.431 13.0902L6.00144 17.9545L10.571 13.0902H9.07932C8.96513 13.0944 8.85389 13.0533 8.76963 12.9757C8.68537 12.8981 8.63487 12.7903 8.62908 12.6755V0.821337H3.37291V12.6755C3.3669 12.7902 3.31636 12.8979 3.23214 12.9755C3.14793 13.053 3.03679 13.0942 2.92266 13.0902H1.431Z"
            fill="black" stroke-linecap="round" stroke-linejoin="round"/>
</svg>