<svg width="20" height="20" viewBox="0 0 20 20" fill="none" xmlns="http://www.w3.org/2000/svg">
<circle cx="10" cy="10" r="10" fill="#C4C4C4"/>
<path d="M7 8.29783V7.82672C7 6.26081 8.3381 5 10 5C11.6619 5 13 6.26081 13 7.82672V8.29783M7 8.29783C6.45 8.29783 6 8.72184 6 9.24007V13.9513C6 14.4695 6.45 14.8935 7 14.8935H13C13.55 14.8935 14 14.4695 14 13.9513V9.24007C14 8.72184 13.55 8.29783 13 8.29783M7 8.29783H13M10 10.6534C10.55 10.6534 11 11.0774 11 11.5957C11 12.1139 10.55 12.5379 10 12.5379C9.45 12.5379 9 12.1139 9 11.5957C9 11.0774 9.45 10.6534 10 10.6534Z" stroke="white"/>
</svg>
