<svg width="137" height="34" viewBox="0 0 137 34" fill="none" xmlns="http://www.w3.org/2000/svg">
<path d="M126.424 16.4414C125.485 15.9791 124.632 15.3689 123.886 14.629C123.141 13.8904 122.523 13.0419 122.053 12.1069C121.975 11.9524 121.818 11.8555 121.644 11.8555C121.47 11.8555 121.312 11.9524 121.234 12.1069C120.763 13.0406 120.146 13.8891 119.401 14.629C118.657 15.3676 117.803 15.9778 116.865 16.4414C116.709 16.5186 116.609 16.6784 116.609 16.8525C116.609 17.0267 116.709 17.1865 116.865 17.2637C117.802 17.726 118.655 18.3362 119.401 19.0761C120.146 19.8146 120.763 20.6632 121.234 21.5969C121.312 21.7514 121.47 21.8483 121.644 21.8483C121.818 21.8483 121.975 21.7514 122.052 21.5969C122.523 20.6632 123.14 19.8146 123.885 19.0761C124.631 18.3375 125.484 17.7273 126.423 17.265C126.58 17.1878 126.678 17.028 126.678 16.8539C126.678 16.6797 126.581 16.5186 126.424 16.4414ZM123.241 18.4239C122.625 19.0342 122.09 19.7112 121.644 20.4471C121.197 19.7125 120.662 19.0342 120.047 18.4253C119.435 17.819 118.757 17.2925 118.024 16.8525C118.757 16.4125 119.435 15.8861 120.047 15.2798C120.662 14.6696 121.197 13.9926 121.644 13.2566C122.091 13.9913 122.625 14.6696 123.241 15.2798C123.852 15.8861 124.53 16.4125 125.264 16.8525C124.53 17.2912 123.852 17.8176 123.241 18.4239Z" fill="#2A2A2C"/>
<path d="M40.8889 11.7734H39.9473V21.9745H40.8889V11.7734Z" fill="#2A2A2C"/>
<path d="M49.2717 16.8307H48.9995L46.0295 11.7734H44.3867V21.9745H45.3305V12.7739H45.6158L48.6146 17.9019H49.6147L52.5991 12.7739H52.8844V21.9745H53.8269V11.7734H52.1698L49.2717 16.8307Z" fill="#2A2A2C"/>
<path d="M59.8212 11.7734L56.1797 21.9745H57.1653L58.3224 18.6745H63.0203L64.1774 21.9745H65.1918L61.5359 11.7734H59.8212ZM58.6222 17.8168L60.3932 12.7739H60.9508L62.7218 17.8168H58.6222Z" fill="#2A2A2C"/>
<path d="M71.158 17.5468H74.6136V17.9043C74.6136 18.9139 74.3401 19.7337 73.7929 20.3622C73.2458 20.9908 72.4434 21.3051 71.3871 21.3051C70.7483 21.3051 70.1854 21.1807 69.6946 20.9332C69.2037 20.6857 68.8163 20.3517 68.5309 19.9327C68.2456 19.5137 68.0309 19.0449 67.8882 18.525C67.7456 18.0051 67.6736 17.4564 67.6736 16.875C67.6736 16.0749 67.7979 15.3507 68.0453 14.7038C68.2927 14.0556 68.7063 13.5187 69.2875 13.0892C69.8687 12.6597 70.5781 12.4463 71.4159 12.4463C72.929 12.4463 73.8819 13.0748 74.272 14.3319H75.2576C75.0574 13.4742 74.6228 12.8038 73.9513 12.3179C73.2798 11.8321 72.4355 11.5898 71.4159 11.5898C69.9498 11.5898 68.8019 12.0848 67.9746 13.0761C67.1474 14.0674 66.7324 15.3337 66.7324 16.8763C66.7324 18.4006 67.1421 19.6629 67.9602 20.6621C68.7783 21.6626 69.921 22.1615 71.3871 22.1615C71.9774 22.1615 72.5101 22.0777 72.9866 21.9114C73.4631 21.745 73.8597 21.5211 74.1791 21.2396C74.4984 20.958 74.7642 20.6228 74.9788 20.2326C75.1935 19.8423 75.348 19.4298 75.4435 18.9964C75.5391 18.563 75.5862 18.1033 75.5862 17.6175V16.6891H71.1593V17.5468H71.158Z" fill="#2A2A2C"/>
<path d="M79.5354 11.7734H78.5938V21.9745H79.5354V11.7734Z" fill="#2A2A2C"/>
<path d="M90.2167 20.974H89.9314L84.7479 11.7734H83.0332V21.9745H83.977V12.7739H84.2623L89.4458 21.9745H91.1592V11.7734H90.2167V20.974Z" fill="#2A2A2C"/>
<path d="M97.1552 11.7734L93.5137 21.9745H94.4993L95.6564 18.6745H100.354L101.511 21.9745H102.526L98.8699 11.7734H97.1552ZM95.9549 17.8168L97.7259 12.7739H98.2835L100.054 17.8168H95.9549Z" fill="#2A2A2C"/>
<path d="M103.092 12.6024H106.534V21.9745H107.477V12.6024H110.904V11.7734H103.092V12.6024Z" fill="#2A2A2C"/>
<path d="M114.272 11.7734H113.33V21.9745H114.272V11.7734Z" fill="#2A2A2C"/>
<path d="M136.029 11.75V20.9506H135.744L130.56 11.75H128.846V21.9511H129.789V12.7505H130.075L135.258 21.9511H136.972V11.75H136.029Z" fill="#2A2A2C"/>
<path d="M13.5739 22.7346L13.5739 22.7346C12.0801 22.0157 10.7773 20.93 9.58825 19.44L9.5881 19.4398C8.61684 18.2215 7.72261 16.749 6.69107 14.6879C6.68847 14.6832 6.68576 14.6783 6.68304 14.673C6.12363 13.5949 5.19545 12.896 4.15347 12.7172L13.5739 22.7346ZM13.5739 22.7346C13.5779 22.7365 13.5816 22.7398 13.5843 22.7449C13.5869 22.7497 13.5874 22.754 13.587 22.7572C13.5847 22.7696 13.576 22.7767 13.5666 22.7782C12.9937 22.8635 12.4044 22.9063 11.8011 22.9063C11.2875 22.9063 10.7651 22.8748 10.2349 22.8128C9.13385 22.6838 8.03092 22.4231 6.95434 22.0375C5.8949 21.6567 4.89619 21.1688 3.98829 20.5864L3.98815 20.5863C3.0632 19.9935 2.26183 19.3235 1.60492 18.5965L1.58509 18.5746C1.27337 18.2075 1.02088 17.7995 0.83574 17.3619L0.835358 17.361C0.643122 16.9091 0.534281 16.4515 0.506518 16.0021C0.4471 15.014 0.794946 14.1528 1.4689 13.5506L1.46898 13.5507M13.5739 22.7346L1.46898 13.5507M1.46898 13.5507L1.47704 13.5432M1.46898 13.5507L1.47704 13.5432M1.47704 13.5432C1.85637 13.1889 2.28544 12.941 2.75439 12.8003C3.21011 12.6641 3.67921 12.6359 4.15342 12.7172L1.47704 13.5432ZM6.71141 14.7213C6.71198 14.7222 6.71238 14.7228 6.71258 14.7231L6.71273 14.7233C6.71287 14.7235 6.71238 14.7228 6.71141 14.7213Z" stroke="#2A2A2C"/>
<path d="M31.9181 15.6964L31.9181 15.6964C31.1414 14.8347 30.2599 14.0767 29.3019 13.4441L31.9181 15.6964ZM31.9181 15.6964L31.9202 15.6987M31.9181 15.6964L31.9202 15.6987M31.9202 15.6987C32.5888 16.4311 32.9585 17.4595 32.9068 18.4388L32.9067 18.4403C32.8861 18.8525 32.7929 19.2385 32.6327 19.5916L32.6324 19.5922C32.4627 19.9676 32.2181 20.2999 31.9042 20.5803L31.9041 20.5802L31.8962 20.5876C31.5149 20.9431 31.0424 21.1995 30.5299 21.3271L30.5284 21.3275C30.2746 21.3915 30.0069 21.4236 29.7358 21.4236C29.4955 21.4236 29.2537 21.3984 29.0187 21.3473L29.0184 21.3472M31.9202 15.6987L29.0184 21.3472M26.6902 19.4595L26.6902 19.4595C26.8927 19.9425 27.22 20.3731 27.6368 20.702L26.6902 19.4595ZM26.6902 19.4595L26.6875 19.4532M26.6902 19.4595L26.6875 19.4532M26.6875 19.4532C25.9552 17.7724 25.0075 16.1846 23.9422 14.8575C22.6807 13.2857 21.2898 12.1117 19.8003 11.3951M26.6875 19.4532L19.7873 11.3708C19.7861 11.3819 19.7919 11.391 19.8003 11.3951M29.0184 21.3472C28.5104 21.2371 28.0322 21.0136 27.637 20.7021L29.0184 21.3472ZM19.8003 11.3951L19.5836 11.8453L19.8003 11.3951ZM26.3076 11.9627C27.3633 12.3316 28.3706 12.8293 29.3018 13.444L26.3076 11.9627Z" stroke="#2A2A2C"/>
<path d="M9.53947 14.1597L10.0144 14.0035C10.0178 14.0136 10.0269 14.0203 10.0365 14.0209L10.039 14.0211C10.0479 14.0208 10.0552 14.016 10.059 14.0081C11.0052 12.0427 12.1869 10.5821 13.7031 9.61791C15.2201 8.6532 17.0275 8.21346 19.176 8.21346C19.2733 8.21346 19.809 8.21215 20.2833 8.21084M9.53947 14.1597L20.2847 8.71084M9.53947 14.1597C9.60623 14.3627 9.78948 14.5054 10.0028 14.5198L9.53947 14.1597ZM9.53947 14.1597L10.0146 14.0039C9.725 13.1211 9.55921 12.2102 9.51934 11.2988L9.51933 11.2986C9.48072 10.4239 9.55917 9.54362 9.75244 8.68288L9.75247 8.68277M9.53947 14.1597L9.75247 8.68277M20.2833 8.21084L20.2847 8.71084M20.2833 8.21084C20.2832 8.21084 20.2831 8.21084 20.283 8.21084L20.2847 8.71084M20.2833 8.21084C20.3759 8.21053 20.4675 8.21022 20.554 8.20993C20.8345 8.20899 21.0625 8.20822 21.1054 8.20822H21.1054H21.1054H21.1055H21.1055H21.1055H21.1055H21.1056H21.1056H21.1056H21.1056H21.1056H21.1057H21.1057H21.1057H21.1057H21.1058H21.1058H21.1058H21.1058H21.1059H21.1059H21.1059H21.1059H21.1059H21.106H21.106H21.106H21.106H21.1061H21.1061H21.1061H21.1061H21.1062H21.1062H21.1062H21.1062H21.1062H21.1063H21.1063H21.1063H21.1063H21.1064H21.1064H21.1064H21.1064H21.1065H21.1065H21.1065H21.1065H21.1065H21.1066H21.1066H21.1066H21.1066H21.1067H21.1067H21.1067H21.1067H21.1068H21.1068H21.1068H21.1068H21.1068H21.1069H21.1069H21.1069H21.1069H21.107H21.107H21.107H21.107H21.1071H21.1071H21.1071H21.1071H21.1071H21.1072H21.1072H21.1072H21.1072H21.1073H21.1073H21.1073H21.1073H21.1074H21.1074H21.1074H21.1074H21.1075H21.1075H21.1075H21.1075H21.1075H21.1076H21.1076H21.1076H21.1076H21.1077H21.1077H21.1077H21.1077H21.1078H21.1078H21.1078H21.1078H21.1078H21.1079H21.1079H21.1079H21.1079H21.108H21.108H21.108H21.108H21.1081H21.1081H21.1081H21.1081H21.1082H21.1082H21.1082H21.1082H21.1082H21.1083H21.1083H21.1083H21.1083H21.1084H21.1084H21.1084H21.1084H21.1085H21.1085H21.1085H21.1085H21.1086H21.1086H21.1086H21.1086H21.1086H21.1087H21.1087H21.1087H21.1087H21.1088H21.1088H21.1088H21.1088H21.1089H21.1089H21.1089H21.1089H21.109H21.109H21.109H21.109H21.109H21.1091H21.1091H21.1091H21.1091H21.1092H21.1092H21.1092H21.1092H21.1093H21.1093H21.1093H21.1093H21.1094H21.1094H21.1094H21.1094H21.1095H21.1095H21.1095H21.1095H21.1095H21.1096H21.1096H21.1096H21.1096H21.1097H21.1097H21.1097H21.1097H21.1098H21.1098H21.1098H21.1098H21.1099H21.1099H21.1099H21.1099H21.11H21.11H21.11H21.11H21.1101H21.1101H21.1101H21.1101H21.1101H21.1102H21.1102H21.1102H21.1102H21.1103H21.1103H21.1103H21.1103H21.1104H21.1104H21.1104H21.1104H21.1105H21.1105H21.1105H21.1105H21.1106H21.1106H21.1106H21.1106H21.1107H21.1107H21.1107H21.1107H21.1108H21.1108H21.1108H21.1108H21.1109H21.1109H21.1109H21.1109H21.111H21.111H21.111H21.111H21.1111H21.1111H21.1111H21.1111H21.1112H21.1112H21.1112H21.1112H21.1113H21.1113H21.1113H21.1113H21.1114H21.1114H21.1114H21.1114H21.1115H21.1115H21.1115H21.1115H21.1116H21.1116H21.1116H21.1116H21.1117H21.1117H21.1117H21.1117H21.1118H21.1118H21.1118H21.1118H21.1119H21.1119H21.1119H21.1119H21.112H21.112H21.112H21.112H21.1121H21.1121H21.1121H21.1121H21.1122H21.1122H21.1122H21.1122H21.1123H21.1123H21.1123H21.1123H21.1124H21.1124H21.1124H21.1124H21.1125H21.1125M20.2847 8.71084C20.3777 8.71053 20.4695 8.71022 20.5562 8.70993C20.8366 8.70898 21.0634 8.70822 21.1054 8.70822H21.1185M21.1125 8.20822C21.1106 8.20827 21.1087 8.20831 21.1067 8.20836L21.1185 8.70822M21.1125 8.20822H21.1125H21.1125H21.1125H21.1126H21.1126H21.1126H21.1126H21.1127H21.1127H21.1127H21.1127H21.1128H21.1128H21.1128H21.1128H21.1129H21.1129H21.1129H21.1129H21.113H21.113H21.113H21.1131H21.1131H21.1131H21.1131H21.1132H21.1132H21.1132H21.1132H21.1133H21.1133H21.1133H21.1133H21.1134H21.1134H21.1134H21.1134H21.1135H21.1135H21.1135H21.1136H21.1136H21.1136H21.1136H21.1137H21.1137H21.1137H21.1137H21.1138H21.1138H21.1138H21.1138H21.1139H21.1139H21.1139H21.1139H21.114H21.114H21.114H21.1141H21.1141H21.1141H21.1141H21.1142H21.1142H21.1142H21.1142H21.1143H21.1143H21.1143H21.1143H21.1144H21.1144H21.1144H21.1145H21.1145H21.1145H21.1145H21.1146H21.1146H21.1146H21.1146H21.1147H21.1147H21.1147H21.1148H21.1148H21.1148H21.1148H21.1149H21.1149H21.1149H21.1149H21.115H21.115H21.115H21.1151H21.1151H21.1151H21.1151H21.1152H21.1152H21.1152H21.1153H21.1153H21.1153H21.1153H21.1154H21.1154H21.1154H21.1154H21.1155H21.1155H21.1155H21.1156H21.1156H21.1156H21.1156H21.1157H21.1157H21.1157H21.1158H21.1158H21.1158H21.1158H21.1159H21.1159H21.1159H21.116H21.116H21.116H21.116H21.1161H21.1161H21.1161H21.1162H21.1162H21.1162H21.1162H21.1163H21.1163H21.1163H21.1164H21.1164H21.1164H21.1164H21.1165H21.1165H21.1165H21.1166H21.1166H21.1166H21.1166H21.1167H21.1167H21.1167H21.1168H21.1168H21.1168H21.1168H21.1169H21.1169H21.1169H21.117H21.117H21.117H21.117H21.1171H21.1171H21.1171H21.1172H21.1172H21.1172H21.1173H21.1173H21.1173H21.1173H21.1174H21.1174H21.1174H21.1175H21.1175H21.1175H21.1175H21.1176H21.1176H21.1176H21.1177H21.1177H21.1177H21.1178H21.1178H21.1178H21.1178H21.1179H21.1179H21.1179H21.118H21.118H21.118H21.1181H21.1181H21.1181H21.1182H21.1182H21.1182H21.1182H21.1183H21.1183H21.1183H21.1184H21.1184H21.1184H21.1185H21.1185V8.70822M21.1125 8.20822L21.1185 8.70822M21.5029 0.642195C22.6964 0.920087 23.6146 1.50418 24.1923 2.30414L21.5029 0.642195ZM21.5029 0.642195L21.4901 0.639727C21.489 0.639504 21.4879 0.639265 21.4867 0.63901C20.5727 0.487155 19.653 0.459385 18.7509 0.557325L18.7504 0.557382C17.8808 0.650857 17.0219 0.860308 16.2001 1.17968L21.5029 0.642195ZM9.75247 8.68277C10.1242 7.02531 10.9187 5.4506 12.051 4.13256C13.1832 2.81473 14.6182 1.79498 16.1999 1.17973L9.75247 8.68277ZM23.7518 7.14753C23.7518 7.14759 23.7517 7.14764 23.7516 7.1477L24.1003 7.50609L23.7518 7.14753ZM24.8633 4.8303C24.8633 4.83055 24.8633 4.8308 24.8633 4.83105L25.3608 4.88053L24.8634 4.82984C24.8634 4.82999 24.8634 4.83015 24.8633 4.8303Z" stroke="#2A2A2C"/>
<path d="M23.8928 22.6989L23.8928 22.6987C23.8529 21.7875 23.6872 20.8768 23.3977 19.9941C23.3944 19.984 23.3852 19.9773 23.3756 19.9766C23.366 19.976 23.3572 19.981 23.353 19.9898L22.9027 19.7724M23.8928 22.6989L13.1275 25.2867M23.8928 22.6989C23.9314 23.5736 23.853 24.4535 23.6573 25.3148L23.657 25.3162M23.8928 22.6989L23.657 25.3162M22.9027 19.7724L23.3532 19.9893C22.407 21.9548 21.2252 23.4154 19.709 24.3796C18.1921 25.3444 16.3846 25.7841 14.2361 25.7841C14.1389 25.7841 13.6031 25.7854 13.1288 25.7867M22.9027 19.7724C22.9957 19.5799 23.1959 19.4634 23.4093 19.4778C23.6227 19.4922 23.8059 19.6349 23.8727 19.8379C24.1763 20.7637 24.3504 21.7196 24.3923 22.6769C24.4329 23.5962 24.3504 24.5207 24.1449 25.4255L22.9027 19.7724ZM13.1288 25.7867L13.1275 25.2867M13.1288 25.7867C13.1289 25.7867 13.129 25.7867 13.1291 25.7867L13.1275 25.2867M13.1288 25.7867C13.0373 25.787 12.9468 25.7873 12.8611 25.7876C12.5793 25.7886 12.3497 25.7893 12.3067 25.7893H12.3067H12.3067H12.3067H12.3067H12.3066H12.3066H12.3066H12.3066H12.3065H12.3065H12.3065H12.3065H12.3064H12.3064H12.3064H12.3064H12.3064H12.3063H12.3063H12.3063H12.3063H12.3062H12.3062H12.3062H12.3062H12.3061H12.3061H12.3061H12.3061H12.3061H12.306H12.306H12.306H12.306H12.3059H12.3059H12.3059H12.3059H12.3058H12.3058H12.3058H12.3058H12.3058H12.3057H12.3057H12.3057H12.3057H12.3056H12.3056H12.3056H12.3056H12.3055H12.3055H12.3055H12.3055H12.3055H12.3054H12.3054H12.3054H12.3054H12.3053H12.3053H12.3053H12.3053H12.3052H12.3052H12.3052H12.3052H12.3052H12.3051H12.3051H12.3051H12.3051H12.305H12.305H12.305H12.305H12.3049H12.3049H12.3049H12.3049H12.3049H12.3048H12.3048H12.3048H12.3048H12.3047H12.3047H12.3047H12.3047H12.3046H12.3046H12.3046H12.3046H12.3046H12.3045H12.3045H12.3045H12.3045H12.3044H12.3044H12.3044H12.3044H12.3043H12.3043H12.3043H12.3043H12.3042H12.3042H12.3042H12.3042H12.3042H12.3041H12.3041H12.3041H12.3041H12.304H12.304H12.304H12.304H12.3039H12.3039H12.3039H12.3039H12.3039H12.3038H12.3038H12.3038H12.3038H12.3037H12.3037H12.3037H12.3037H12.3036H12.3036H12.3036H12.3036H12.3035H12.3035H12.3035H12.3035H12.3035H12.3034H12.3034H12.3034H12.3034H12.3033H12.3033H12.3033H12.3033H12.3032H12.3032H12.3032H12.3032H12.3031H12.3031H12.3031H12.3031H12.303H12.303H12.303H12.303H12.303H12.3029H12.3029H12.3029H12.3029H12.3028H12.3028H12.3028H12.3028H12.3027H12.3027H12.3027H12.3027H12.3026H12.3026H12.3026H12.3026H12.3025H12.3025H12.3025H12.3025H12.3025H12.3024H12.3024H12.3024H12.3024H12.3023H12.3023H12.3023H12.3023H12.3022H12.3022H12.3022H12.3022H12.3021H12.3021H12.3021H12.3021H12.302H12.302H12.302H12.302H12.3019H12.3019H12.3019H12.3019H12.3018H12.3018H12.3018H12.3018H12.3018H12.3017H12.3017H12.3017H12.3017H12.3016H12.3016H12.3016H12.3016H12.3015H12.3015H12.3015H12.3015H12.3014H12.3014H12.3014H12.3014H12.3013H12.3013H12.3013H12.3013H12.3012H12.3012H12.3012H12.3012H12.3011H12.3011H12.3011H12.3011H12.301H12.301H12.301H12.301H12.3009H12.3009H12.3009H12.3009H12.3008H12.3008H12.3008H12.3008H12.3007H12.3007H12.3007H12.3007H12.3006H12.3006H12.3006H12.3006H12.3005H12.3005H12.3005H12.3005H12.3004H12.3004H12.3004H12.3004H12.3003H12.3003H12.3003H12.3003H12.3002H12.3002H12.3002H12.3002H12.3001H12.3001H12.3001H12.3001H12.3H12.3H12.3H12.3H12.3M13.1275 25.2867C13.0348 25.287 12.9433 25.2873 12.8569 25.2876C12.5761 25.2886 12.3488 25.2893 12.3067 25.2893H12.2937M12.3 25.7893C12.302 25.7893 12.304 25.7892 12.306 25.7892L12.2937 25.2893M12.3 25.7893C11.2474 25.8166 10.3416 26.188 9.66064 26.851L9.6605 26.8512C9.03539 27.4593 8.63917 28.2821 8.54876 29.1703L8.54875 29.1704C8.4563 30.0768 8.69564 30.9731 9.21719 31.696M12.3 25.7893H12.2999H12.2999H12.2999H12.2999H12.2998H12.2998H12.2998H12.2998H12.2997H12.2997H12.2997H12.2997H12.2996H12.2996H12.2996H12.2996H12.2995H12.2995H12.2995H12.2995H12.2994H12.2994H12.2994H12.2993H12.2993H12.2993H12.2993H12.2992H12.2992H12.2992H12.2992H12.2991H12.2991H12.2991H12.2991H12.299H12.299H12.299H12.299H12.2989H12.2989H12.2989H12.2989H12.2988H12.2988H12.2988H12.2987H12.2987H12.2987H12.2987H12.2986H12.2986H12.2986H12.2986H12.2985H12.2985H12.2985H12.2985H12.2984H12.2984H12.2984H12.2984H12.2983H12.2983H12.2983H12.2982H12.2982H12.2982H12.2982H12.2981H12.2981H12.2981H12.2981H12.298H12.298H12.298H12.298H12.2979H12.2979H12.2979H12.2978H12.2978H12.2978H12.2978H12.2977H12.2977H12.2977H12.2977H12.2976H12.2976H12.2976H12.2975H12.2975H12.2975H12.2975H12.2974H12.2974H12.2974H12.2974H12.2973H12.2973H12.2973H12.2972H12.2972H12.2972H12.2972H12.2971H12.2971H12.2971H12.2971H12.297H12.297H12.297H12.2969H12.2969H12.2969H12.2969H12.2968H12.2968H12.2968H12.2968H12.2967H12.2967H12.2967H12.2966H12.2966H12.2966H12.2966H12.2965H12.2965H12.2965H12.2964H12.2964H12.2964H12.2964H12.2963H12.2963H12.2963H12.2962H12.2962H12.2962H12.2962H12.2961H12.2961H12.2961H12.296H12.296H12.296H12.296H12.2959H12.2959H12.2959H12.2958H12.2958H12.2958H12.2958H12.2957H12.2957H12.2957H12.2956H12.2956H12.2956H12.2956H12.2955H12.2955H12.2955H12.2954H12.2954H12.2954H12.2954H12.2953H12.2953H12.2953H12.2952H12.2952H12.2952H12.2952H12.2951H12.2951H12.2951H12.295H12.295H12.295H12.2949H12.2949H12.2949H12.2949H12.2948H12.2948H12.2948H12.2947H12.2947H12.2947H12.2947H12.2946H12.2946H12.2946H12.2945H12.2945H12.2945H12.2944H12.2944H12.2944H12.2944H12.2943H12.2943H12.2943H12.2942H12.2942H12.2942H12.2941H12.2941H12.2941H12.2941H12.294H12.294H12.294H12.2939H12.2939H12.2939H12.2938H12.2938H12.2938H12.2937H12.2937H12.2937H12.2937V25.2893M12.2937 25.2893L9.21719 31.696M9.21719 31.696L8.81184 31.9888L9.21732 31.6962C9.21727 31.6962 9.21723 31.6961 9.21719 31.696ZM9.21719 31.696C9.79494 32.4961 10.7132 33.0801 11.9066 33.3567M9.21719 31.696L11.9066 33.3567M11.9066 33.3567L11.9194 33.3591C11.9204 33.3593 11.9215 33.3596 11.9226 33.3598M11.9066 33.3567L11.9226 33.3598M11.9226 33.3598C12.4809 33.4522 13.042 33.4989 13.5987 33.4989C13.9542 33.4989 14.3082 33.4801 14.6597 33.4427L11.9226 33.3598ZM23.657 25.3162C23.2853 26.9749 22.4908 28.5496 21.3585 29.8676C20.2264 31.1854 18.7913 32.2052 17.2096 32.8204M23.657 25.3162L17.2096 32.8204M17.2096 32.8204C16.3879 33.1398 15.5291 33.3492 14.6597 33.4427L17.2096 32.8204Z" stroke="#2A2A2C"/>
<path d="M16.6844 12.103L16.6844 12.1028C16.6886 12.0946 16.6966 12.0898 16.7052 12.0898C16.7137 12.0898 16.7217 12.0946 16.7259 12.1028C17.2176 13.0798 17.8623 13.9657 18.6412 14.7381C19.42 15.5104 20.3121 16.1468 21.2922 16.6303C21.3008 16.6347 21.3062 16.6428 21.3062 16.6537C21.3062 16.6597 21.3046 16.6642 21.3025 16.6675C21.3006 16.6706 21.298 16.673 21.2945 16.6747L21.2931 16.6754C20.3127 17.1589 19.4203 17.7955 18.6412 18.568C17.862 19.3394 17.2175 20.2266 16.726 21.2018L16.7259 21.202C16.7217 21.2102 16.7137 21.215 16.7052 21.215C16.6966 21.215 16.6886 21.2102 16.6844 21.202L16.6841 21.2013C16.1913 20.2264 15.5483 19.3406 14.7692 18.568C13.9905 17.7959 13.0997 17.1594 12.1194 16.6758C12.1139 16.673 12.1107 16.6697 12.1088 16.6666C12.1069 16.6635 12.1055 16.6595 12.1055 16.6537C12.1055 16.6439 12.1111 16.6357 12.1184 16.6321L12.119 16.6318C13.0993 16.1469 13.9902 15.5105 14.7692 14.7381C15.5482 13.9656 16.1927 13.0784 16.6844 12.103Z" stroke="#2A2A2C"/>
</svg>
