<svg width="173" height="43" viewBox="0 0 173 43" fill="none" xmlns="http://www.w3.org/2000/svg">
<path d="M159.681 20.7592C158.496 20.1755 157.418 19.405 156.476 18.4708C155.535 17.5382 154.755 16.4668 154.161 15.2862C154.062 15.0911 153.863 14.9688 153.644 14.9688C153.424 14.9688 153.225 15.0911 153.126 15.2862C152.531 16.4651 151.752 17.5366 150.812 18.4708C149.871 19.4034 148.793 20.1739 147.608 20.7592C147.411 20.8568 147.285 21.0585 147.285 21.2784C147.285 21.4983 147.411 21.7 147.608 21.7976C148.791 22.3813 149.869 23.1518 150.812 24.086C151.752 25.0186 152.531 26.09 153.126 27.2689C153.225 27.4641 153.424 27.5864 153.644 27.5864C153.863 27.5864 154.062 27.4641 154.159 27.2689C154.755 26.09 155.533 25.0186 156.474 24.086C157.416 23.1534 158.494 22.3829 159.68 21.7993C159.878 21.7017 160.002 21.5 160.002 21.2801C160.002 21.0601 159.88 20.8568 159.681 20.7592ZM155.661 23.2626C154.884 24.0331 154.207 24.8879 153.644 25.8172C153.08 24.8896 152.404 24.0331 151.627 23.2642C150.855 22.4987 149.998 21.834 149.072 21.2784C149.998 20.7228 150.855 20.0581 151.627 19.2926C152.404 18.5221 153.08 17.6672 153.644 16.738C154.209 17.6656 154.884 18.5221 155.661 19.2926C156.433 20.0581 157.289 20.7228 158.217 21.2784C157.289 21.8323 156.433 22.497 155.661 23.2626Z" fill="#2A2A2C"/>
<path d="M51.6474 14.8672H50.457V27.7478H51.6474V14.8672Z" fill="#2A2A2C"/>
<path d="M62.2364 21.2529H61.8925L58.1412 14.8672H56.0664V27.7478H57.2584V16.1304H57.6188L61.4064 22.6054H62.6695L66.439 16.1304H66.7994V27.7478H67.9897V14.8672H65.8967L62.2364 21.2529Z" fill="#2A2A2C"/>
<path d="M75.5603 14.8672L70.9609 27.7478H72.2058L73.6673 23.581H79.6009L81.0624 27.7478H82.3436L77.7261 14.8672H75.5603ZM74.0459 22.498L76.2828 16.1304H76.9871L79.2239 22.498H74.0459Z" fill="#2A2A2C"/>
<path d="M89.8787 22.1545H94.2433V22.6059C94.2433 23.8807 93.8978 24.9158 93.2068 25.7094C92.5157 26.5031 91.5022 26.8999 90.1681 26.8999C89.3613 26.8999 88.6504 26.7428 88.0304 26.4303C87.4104 26.1178 86.9211 25.6962 86.5606 25.1671C86.2002 24.638 85.9291 24.046 85.7489 23.3896C85.5687 22.7332 85.4778 22.0404 85.4778 21.3062C85.4778 20.296 85.6348 19.3816 85.9473 18.5648C86.2597 17.7463 86.7822 17.0684 87.5162 16.526C88.2503 15.9837 89.1463 15.7142 90.2044 15.7142C92.1156 15.7142 93.3192 16.5079 93.8118 18.0952H95.0567C94.8038 17.0122 94.2549 16.1656 93.4068 15.5521C92.5587 14.9387 91.4923 14.6328 90.2044 14.6328C88.3528 14.6328 86.9029 15.2578 85.858 16.5095C84.8131 17.7612 84.2891 19.3601 84.2891 21.3079C84.2891 23.2325 84.8065 24.8265 85.8398 26.0881C86.8731 27.3513 88.3164 27.9813 90.1681 27.9813C90.9137 27.9813 91.5866 27.8755 92.1883 27.6655C92.7901 27.4555 93.2911 27.1727 93.6945 26.8173C94.0979 26.4618 94.4335 26.0385 94.7046 25.5457C94.9757 25.053 95.1708 24.5322 95.2915 23.9849C95.4122 23.4376 95.4717 22.8572 95.4717 22.2437V21.0714H89.8804V22.1545H89.8787Z" fill="#2A2A2C"/>
<path d="M100.46 14.8672H99.2695V27.7478H100.46V14.8672Z" fill="#2A2A2C"/>
<path d="M113.952 26.4845H113.592L107.045 14.8672H104.879V27.7478H106.071V16.1304H106.431L112.978 27.7478H115.142V14.8672H113.952V26.4845Z" fill="#2A2A2C"/>
<path d="M122.713 14.8672L118.113 27.7478H119.358L120.82 23.581H126.753L128.215 27.7478H129.496L124.878 14.8672H122.713ZM121.197 22.498L123.433 16.1304H124.138L126.375 22.498H121.197Z" fill="#2A2A2C"/>
<path d="M130.211 15.9138H134.559V27.7478H135.749V15.9138H140.078V14.8672H130.211V15.9138Z" fill="#2A2A2C"/>
<path d="M144.331 14.8672H143.141V27.7478H144.331V14.8672Z" fill="#2A2A2C"/>
<path d="M171.811 14.832V26.4493H171.451L164.904 14.832H162.738V27.7126H163.93V16.0953H164.291L170.838 27.7126H173.002V14.832H171.811Z" fill="#2A2A2C"/>
<path d="M17.4182 28.1355C15.6311 27.2757 14.0572 25.9711 12.604 24.1507C11.412 22.6559 10.3026 20.8338 9.00645 18.2428C9.0048 18.2395 9.00315 18.2378 9.00149 18.2345C8.21454 16.7183 6.88532 15.6965 5.35274 15.4335C4.65837 15.3145 3.96731 15.3558 3.29774 15.5559C2.60833 15.7626 1.98174 16.1264 1.43451 16.6373C0.429329 17.5351 -0.0765684 18.8149 0.00940118 20.2419C0.0490795 20.8851 0.204486 21.5332 0.473968 22.1665C0.73849 22.7915 1.10055 23.3719 1.54693 23.8911C1.55024 23.8944 1.55355 23.8993 1.55851 23.9026C2.42978 24.8666 3.48621 25.7479 4.6964 26.5234C5.88509 27.2857 7.18952 27.9222 8.56999 28.4183C9.97361 28.9209 11.4136 29.2616 12.8536 29.4302C13.5463 29.5112 14.2308 29.5526 14.9053 29.5526C15.6972 29.5526 16.4726 29.4964 17.2281 29.3839C17.5158 29.3409 17.7406 29.1161 17.7853 28.8283C17.8283 28.544 17.6795 28.2612 17.4182 28.1355Z" fill="#06D6A0"/>
<path d="M40.7858 19.3978C39.7691 18.2701 38.6151 17.278 37.3603 16.4496C36.1402 15.6444 34.8209 14.9929 33.4388 14.5101C30.7208 13.5627 27.778 13.2849 24.9278 13.7082C24.6401 13.7512 24.4153 13.976 24.3706 14.2637C24.3276 14.5514 24.4764 14.8325 24.7376 14.9582C26.5149 15.8131 28.2012 17.2268 29.7503 19.1564C31.0581 20.7851 32.2269 22.7411 33.1312 24.8162C33.4288 25.5256 33.9083 26.1555 34.5183 26.6367C35.0953 27.0914 35.788 27.4138 36.5204 27.5726C36.8627 27.647 37.2132 27.6834 37.5603 27.6834C37.9522 27.6834 38.3423 27.6371 38.716 27.5428C39.4665 27.356 40.1593 26.9806 40.7197 26.4581C41.181 26.0464 41.543 25.5553 41.7943 24.9998C42.0307 24.4789 42.1663 23.9134 42.1961 23.3165C42.2705 21.9094 41.7431 20.4461 40.7858 19.3978Z" fill="#FF4F79"/>
<path d="M31.0671 2.53975C30.2322 1.38397 28.9277 0.573766 27.2976 0.195121C27.2844 0.191814 27.2712 0.19016 27.258 0.186853C26.0428 -0.016524 24.8177 -0.0545538 23.6142 0.0760706C22.4602 0.200081 21.3211 0.477865 20.2316 0.901154C18.1353 1.71632 16.2373 3.06555 14.7411 4.80666C13.2449 6.54777 12.1934 8.62949 11.7008 10.8253C11.4445 11.9662 11.3403 13.1336 11.3916 14.2943C11.4445 15.503 11.6644 16.71 12.0479 17.879C12.1323 18.1353 12.3637 18.3155 12.6332 18.3337C12.6481 18.3354 12.663 18.3354 12.6778 18.3354C12.9308 18.3354 13.1622 18.1915 13.273 17.9617C15.5909 13.1484 18.9668 11.0022 24.2193 11.0022C24.3433 11.0022 25.0211 11.0006 25.6196 10.9989C26.1172 10.9973 26.5867 10.9956 26.6562 10.9956C26.6611 10.9956 26.6661 10.9956 26.6727 10.9956C28.1507 10.9609 29.4535 10.4351 30.4388 9.47772C31.3366 8.60469 31.902 7.42741 32.0309 6.16251C32.1599 4.86618 31.8177 3.57978 31.0671 2.53975Z" fill="#F4E04D"/>
<path d="M30.8078 28.6347C30.7549 27.426 30.535 26.219 30.1514 25.05C30.0671 24.7937 29.8357 24.6135 29.5662 24.5953C29.2967 24.5771 29.0437 24.7242 28.9264 24.9673C26.6085 29.7806 23.2325 31.9268 17.9801 31.9268C17.8561 31.9268 17.1783 31.9284 16.5798 31.9301C16.0822 31.9317 15.6126 31.9334 15.5432 31.9334C15.5383 31.9334 15.5333 31.9334 15.5267 31.9334C14.0487 31.9697 12.7459 32.4939 11.7605 33.4529C10.8628 34.3259 10.2974 35.5032 10.1685 36.7698C10.0362 38.0661 10.3784 39.3525 11.129 40.3925C11.9639 41.5483 13.2683 42.3585 14.8984 42.7355C14.9117 42.7388 14.9249 42.7405 14.9381 42.7438C15.6821 42.8678 16.431 42.9306 17.175 42.9306C17.6462 42.9306 18.1157 42.9058 18.5819 42.8562C19.7359 42.7322 20.875 42.4544 21.9645 42.0311C24.0608 41.216 25.9588 39.8667 27.455 38.1256C28.9512 36.3845 30.0026 34.3028 30.4953 32.1053C30.7549 30.9628 30.859 29.7954 30.8078 28.6347Z" fill="#7692FF"/>
<path d="M27.1754 20.4316C25.9982 19.8512 24.9269 19.0873 23.9912 18.1597C23.0554 17.2321 22.2817 16.1689 21.6915 14.9966C21.5791 14.7734 21.3509 14.6328 21.1013 14.6328C20.8516 14.6328 20.6235 14.7734 20.5111 14.9966C19.9208 16.1672 19.1471 17.2321 18.2114 18.1597C17.2756 19.0873 16.206 19.8512 15.0288 20.4332C14.804 20.544 14.6602 20.7738 14.6602 21.0268C14.6602 21.2798 14.8023 21.508 15.0288 21.6204C16.206 22.2008 17.2756 22.9647 18.2114 23.8923C19.1471 24.8199 19.9192 25.8831 20.5111 27.0537C20.6235 27.2769 20.8516 27.4175 21.1013 27.4175C21.3509 27.4175 21.5791 27.2769 21.6915 27.0537C22.2817 25.8831 23.0554 24.8182 23.9912 23.8923C24.9269 22.9647 25.9982 22.2008 27.1754 21.6204C27.4018 21.5096 27.544 21.2798 27.544 21.0268C27.544 20.7738 27.4018 20.544 27.1754 20.4316Z" fill="#2A2A2C"/>
</svg>
