<svg width="173" height="43" viewBox="0 0 173 43" fill="none" xmlns="http://www.w3.org/2000/svg">
<path d="M159.677 20.9486C158.492 20.364 157.414 19.5921 156.472 18.6564C155.531 17.7222 154.751 16.649 154.157 15.4664C154.058 15.271 153.86 15.1484 153.64 15.1484C153.42 15.1484 153.221 15.271 153.122 15.4664C152.527 16.6473 151.748 17.7206 150.808 18.6564C149.867 19.5905 148.789 20.3623 147.604 20.9486C147.407 21.0463 147.281 21.2484 147.281 21.4687C147.281 21.689 147.407 21.891 147.604 21.9887C148.787 22.5734 149.865 23.3452 150.808 24.281C151.748 25.2151 152.527 26.2884 153.122 27.4693C153.221 27.6647 153.42 27.7873 153.64 27.7873C153.86 27.7873 154.058 27.6647 154.156 27.4693C154.751 26.2884 155.529 25.2151 156.47 24.281C157.413 23.3469 158.49 22.5751 159.676 21.9904C159.874 21.8927 159.998 21.6906 159.998 21.4703C159.998 21.2501 159.876 21.0463 159.677 20.9486ZM155.657 23.4562C154.88 24.228 154.204 25.0843 153.64 26.0151C153.076 25.0859 152.4 24.228 151.623 23.4578C150.851 22.691 149.994 22.0252 149.068 21.4687C149.994 20.9122 150.851 20.2464 151.623 19.4795C152.4 18.7077 153.076 17.8514 153.64 16.9206C154.205 17.8498 154.88 18.7077 155.657 19.4795C156.429 20.2464 157.285 20.9122 158.213 21.4687C157.285 22.0235 156.429 22.6893 155.657 23.4562Z" fill="#2A2A2C"/>
<path d="M51.6435 15.0469H50.4531V27.949H51.6435V15.0469Z" fill="#2A2A2C"/>
<path d="M62.2325 21.4433H61.8886L58.1374 15.0469H56.0625V27.949H57.2545V16.3122H57.6149L61.4026 22.7981H62.6657L66.4351 16.3122H66.7955V27.949H67.9859V15.0469H65.8929L62.2325 21.4433Z" fill="#2A2A2C"/>
<path d="M75.5564 15.0469L70.957 27.949H72.2019L73.6634 23.7753H79.597L81.0585 27.949H82.3398L77.7222 15.0469H75.5564ZM74.042 22.6905L76.2789 16.3122H76.9832L79.2201 22.6905H74.042Z" fill="#2A2A2C"/>
<path d="M89.8749 22.3468H94.2395V22.7989C94.2395 24.0759 93.894 25.1127 93.2029 25.9077C92.5118 26.7027 91.4984 27.1002 90.1642 27.1002C89.3574 27.1002 88.6465 26.9429 88.0265 26.6298C87.4065 26.3168 86.9172 25.8945 86.5568 25.3645C86.1963 24.8345 85.9252 24.2415 85.745 23.584C85.5648 22.9265 85.4739 22.2325 85.4739 21.4971C85.4739 20.4851 85.6309 19.5692 85.9434 18.7511C86.2559 17.9312 86.7783 17.2522 87.5123 16.7089C88.2464 16.1657 89.1425 15.8957 90.2006 15.8957C92.1117 15.8957 93.3153 16.6907 93.808 18.2807H95.0529C94.8 17.1958 94.2511 16.3478 93.403 15.7334C92.5548 15.1189 91.4885 14.8125 90.2006 14.8125C88.3489 14.8125 86.899 15.4386 85.8541 16.6923C84.8092 17.9461 84.2852 19.5477 84.2852 21.4988C84.2852 23.4266 84.8026 25.0233 85.8359 26.287C86.8692 27.5524 88.3125 28.1834 90.1642 28.1834C90.9098 28.1834 91.5827 28.0774 92.1845 27.867C92.7863 27.6567 93.2872 27.3735 93.6906 27.0174C94.094 26.6613 94.4296 26.2373 94.7008 25.7437C94.9719 25.2502 95.167 24.7285 95.2877 24.1802C95.4084 23.632 95.4679 23.0507 95.4679 22.4362V21.2619H89.8765V22.3468H89.8749Z" fill="#2A2A2C"/>
<path d="M100.456 15.0469H99.2656V27.949H100.456V15.0469Z" fill="#2A2A2C"/>
<path d="M113.948 26.6837H113.588L107.041 15.0469H104.875V27.949H106.067V16.3122H106.427L112.974 27.949H115.139V15.0469H113.948V26.6837Z" fill="#2A2A2C"/>
<path d="M122.709 15.0469L118.109 27.949H119.354L120.816 23.7753H126.749L128.211 27.949H129.492L124.875 15.0469H122.709ZM121.193 22.6905L123.43 16.3122H124.134L126.371 22.6905H121.193Z" fill="#2A2A2C"/>
<path d="M130.207 16.0953H134.555V27.949H135.745V16.0953H140.074V15.0469H130.207V16.0953Z" fill="#2A2A2C"/>
<path d="M144.331 15.0469H143.141V27.949H144.331V15.0469Z" fill="#2A2A2C"/>
<path d="M171.808 15.0156V26.6524H171.447L164.9 15.0156H162.734V27.9178H163.926V16.281H164.287L170.834 27.9178H172.998V15.0156H171.808Z" fill="#2A2A2C"/>
<path d="M14.9057 29.6037C14.2312 29.6037 13.5467 29.5623 12.854 29.4811C11.414 29.3122 9.97236 28.971 8.57038 28.4675C7.1899 27.9723 5.88547 27.333 4.69677 26.5695C3.48657 25.7927 2.43013 24.9099 1.55886 23.9443C1.55555 23.941 1.55224 23.936 1.54728 23.9327C1.09925 23.4126 0.738832 22.8296 0.474309 22.2052C0.206479 21.5709 0.0494181 20.9217 0.0097396 20.2774C-0.0778838 18.848 0.428017 17.5661 1.43486 16.6668C1.98209 16.155 2.61034 15.7906 3.2981 15.5836C3.96767 15.3832 4.66039 15.3418 5.35311 15.461C6.8857 15.7243 8.21493 16.7463 9.00189 18.2667C9.00354 18.27 9.00519 18.2717 9.00685 18.275C10.303 20.8703 11.4124 22.6955 12.6044 24.1927C14.0576 26.0179 15.6315 27.3231 17.4187 28.1843C17.6799 28.3102 17.8287 28.5934 17.7857 28.8799C17.7427 29.1681 17.5162 29.3934 17.2286 29.4364C16.473 29.5474 15.6976 29.6037 14.9057 29.6037ZM2.54421 23.0615C4.12969 24.8138 6.42774 26.2912 9.01511 27.2204C10.3229 27.6907 11.667 28.0087 13.0078 28.1661C13.6724 28.2439 14.3271 28.282 14.9718 28.2787C13.7534 27.4257 12.6292 26.3475 11.5711 25.0176C10.3195 23.4458 9.16391 21.5494 7.82641 18.8696C7.23123 17.7234 6.24919 16.9566 5.12992 16.7645C4.6389 16.68 4.15119 16.7098 3.67835 16.8506C3.18402 16.998 2.73103 17.263 2.33259 17.6373C2.32763 17.6406 2.32432 17.6456 2.31936 17.6489C1.42163 18.4472 1.28607 19.4741 1.3307 20.1946C1.38857 21.185 1.83165 22.2301 2.54421 23.0615Z" fill="#06D6A0"/>
<path d="M37.5565 27.7305C37.2093 27.7305 36.8588 27.6941 36.5166 27.6196C35.7842 27.4622 35.0915 27.1376 34.5145 26.6821C33.9028 26.2002 33.4233 25.5691 33.1274 24.8586C32.2231 22.78 31.0542 20.8207 29.7465 19.1893C28.1973 17.2564 26.5094 15.842 24.7337 14.9841C24.4725 14.8582 24.3237 14.575 24.3667 14.2884C24.4097 14.0002 24.6362 13.775 24.9239 13.7319C27.7741 13.3079 30.7186 13.5862 33.4349 14.5352C34.817 15.0188 36.1364 15.6714 37.3565 16.478C38.613 17.3078 39.7653 18.3015 40.7821 19.4311C41.7393 20.4811 42.2667 21.9486 42.1939 23.3564C42.1625 23.9526 42.027 24.5207 41.7922 25.0425C41.5393 25.599 41.1772 26.0909 40.7176 26.5033C40.1571 27.0266 39.4644 27.4026 38.7138 27.5898C38.3385 27.6825 37.9483 27.7305 37.5565 27.7305ZM27.1359 14.8698C28.4172 15.7675 29.6357 16.9351 30.7781 18.3595C32.1586 20.082 33.3919 22.1473 34.3426 24.3336C34.3442 24.3369 34.3459 24.3402 34.3459 24.3435C34.5591 24.8553 34.8914 25.2925 35.3329 25.642C35.7528 25.9733 36.257 26.2085 36.7944 26.3244C37.3284 26.4387 37.8806 26.432 38.3931 26.3045C38.9353 26.1687 39.4148 25.9087 39.8182 25.531C39.8232 25.5277 39.8265 25.5228 39.8314 25.5195C40.6333 24.8056 40.8416 23.9129 40.873 23.2901C40.9275 22.2285 40.5291 21.1205 39.8033 20.3255C39.8017 20.3238 39.8017 20.3238 39.8 20.3221C38.8576 19.2754 37.7896 18.3545 36.6257 17.586C35.4965 16.8407 34.2764 16.2362 32.9968 15.789C31.1203 15.1315 29.1248 14.8217 27.1359 14.8698Z" fill="#FF4F79"/>
<path d="M12.6772 18.365C12.6623 18.365 12.6474 18.365 12.6325 18.3633C12.363 18.3451 12.1316 18.1646 12.0473 17.9078C11.6654 16.7369 11.4438 15.5278 11.3909 14.3171C11.3413 13.1544 11.4455 11.9851 11.7001 10.8423C12.1928 8.64113 13.2426 6.55757 14.7404 4.81354C16.2367 3.07117 18.1346 1.71802 20.231 0.901486C21.3205 0.477486 22.4579 0.199237 23.6136 0.0750182C24.8171 -0.0541692 26.0439 -0.0160755 27.2574 0.185987C27.2706 0.187643 27.2838 0.190955 27.2971 0.194268C28.9288 0.571892 30.2316 1.38345 31.0665 2.54283C31.8171 3.58461 32.1593 4.87317 32.0271 6.17167C31.8981 7.4387 31.3327 8.61795 30.435 9.49244C29.4496 10.4514 28.1485 10.9764 26.6688 11.0129C26.6638 11.0129 26.6589 11.0129 26.6523 11.0129C26.5812 11.0129 26.1117 11.0145 25.6157 11.0162C25.0188 11.0178 24.341 11.0195 24.2154 11.0195C18.9646 11.0195 15.5886 13.1693 13.269 17.9907C13.1616 18.2209 12.9301 18.365 12.6772 18.365ZM25.0238 1.32549C24.5989 1.32549 24.1757 1.34867 23.7557 1.39339C22.7175 1.50436 21.6925 1.75611 20.7121 2.13705C18.8174 2.87408 17.1013 4.0997 15.7456 5.67811C14.39 7.25817 13.4377 9.14463 12.9929 11.1338C12.7631 12.1623 12.6689 13.2157 12.7152 14.2608C12.7383 14.8057 12.7995 15.3489 12.8987 15.8905C13.9965 14.0488 15.291 12.6542 16.8269 11.6505C18.8406 10.3355 21.2593 9.69616 24.2187 9.69616C24.341 9.69616 25.0172 9.69451 25.614 9.69285C26.1166 9.69119 26.5531 9.68954 26.6473 9.68954C27.7831 9.66138 28.7751 9.26388 29.5157 8.54341C30.1903 7.88588 30.6168 6.99648 30.7144 6.03917C30.8136 5.06364 30.559 4.09804 29.9985 3.31961C29.357 2.4302 28.327 1.79752 27.0226 1.49111C26.3563 1.38014 25.6884 1.32549 25.0238 1.32549Z" fill="#F4E04D"/>
<path d="M17.1789 43.0005C16.435 43.0005 15.686 42.9375 14.9421 42.8133C14.9288 42.8116 14.9156 42.8083 14.9024 42.805C13.2722 42.4274 11.9678 41.6158 11.1329 40.4581C10.3823 39.4163 10.0401 38.1278 10.1724 36.8293C10.3013 35.5623 10.8667 34.3813 11.7645 33.5068C12.7498 32.5479 14.0509 32.0212 15.5306 31.9848C15.5356 31.9848 15.5405 31.9848 15.5472 31.9848C15.6182 31.9848 16.0878 31.9831 16.5838 31.9814C17.1806 31.9798 17.8584 31.9781 17.9841 31.9781C23.2349 31.9781 26.6108 29.8283 28.9304 25.007C29.0478 24.7635 29.3007 24.6161 29.5702 24.6343C29.8397 24.6525 30.0711 24.8331 30.1555 25.0898C30.539 26.2608 30.7589 27.4698 30.8118 28.6805C30.8614 29.8432 30.7589 31.0125 30.5026 32.1553C30.0116 34.3565 28.9601 36.4417 27.4623 38.1857C25.9661 39.9281 24.0681 41.2813 21.9718 42.0978C20.8823 42.5218 19.7448 42.8001 18.5892 42.9243C18.1196 42.9756 17.6501 43.0005 17.1789 43.0005ZM15.1801 41.5098C16.2696 41.6904 17.3674 41.7235 18.4453 41.6076C19.4836 41.4966 20.5086 41.2448 21.489 40.8639C23.3837 40.1269 25.1014 38.9012 26.4554 37.3228C27.8111 35.7428 28.7634 33.8563 29.2081 31.8672C29.4379 30.8386 29.5322 29.7853 29.4859 28.7402C29.4627 28.1953 29.4016 27.6504 29.3024 27.1104C28.2046 28.9522 26.9101 30.3467 25.3725 31.3504C23.3589 32.6655 20.9401 33.3048 17.9808 33.3048C17.8584 33.3048 17.1822 33.3064 16.5854 33.3081C16.0828 33.3098 15.6463 33.3114 15.5521 33.3114C14.4163 33.3412 13.4243 33.7371 12.6837 34.4575C12.0091 35.1151 11.5826 36.0045 11.4851 36.9634C11.3859 37.939 11.6405 38.9046 12.2009 39.6813C12.8457 40.5724 13.874 41.2034 15.1801 41.5098Z" fill="#7692FF"/>
<path d="M21.1013 27.4624C20.8517 27.4624 20.6235 27.3216 20.5111 27.098C19.9209 25.9254 19.1471 24.8587 18.2114 23.9312C17.2756 23.0021 16.206 22.2369 15.0288 21.6556C14.8023 21.5446 14.6602 21.3144 14.6602 21.061C14.6602 20.8076 14.8023 20.579 15.0288 20.4664C16.206 19.8834 17.2773 19.1182 18.2114 18.189C19.1471 17.2599 19.9209 16.1949 20.5111 15.0206C20.6235 14.797 20.8517 14.6562 21.1013 14.6562C21.3509 14.6562 21.5791 14.797 21.6915 15.0206C22.2817 16.1949 23.0555 17.2599 23.9912 18.189C24.927 19.1182 25.9983 19.8834 27.1754 20.4647C27.4019 20.5757 27.5441 20.8059 27.5441 21.0593C27.5441 21.3127 27.4003 21.5413 27.1754 21.6539C25.9983 22.2352 24.927 23.0004 23.9912 23.9296C23.0555 24.8571 22.2817 25.9237 21.6915 27.0963C21.5791 27.3216 21.3509 27.4624 21.1013 27.4624ZM16.6887 21.061C17.5765 21.6059 18.3982 22.2518 19.1422 22.9905C19.8911 23.7341 20.5475 24.559 21.1013 25.4484C21.6551 24.5573 22.3115 23.7341 23.0604 22.9888C23.8044 22.2501 24.6261 21.6042 25.5139 21.0593C24.6261 20.5144 23.8044 19.8685 23.0604 19.1298C22.3115 18.3861 21.6551 17.5613 21.1013 16.6702C20.5475 17.5613 19.8928 18.3845 19.1422 19.1298C18.3982 19.8701 17.5765 20.5161 16.6887 21.061Z" fill="#2A2A2C"/>
</svg>
