<?xml version="1.0" encoding="utf-8"?>
<!-- Generator: Adobe Illustrator 25.0.0, SVG Export Plug-In . SVG Version: 6.00 Build 0)  -->
<svg version="1.1" id="Layer_1" xmlns="http://www.w3.org/2000/svg" xmlns:xlink="http://www.w3.org/1999/xlink" x="0px" y="0px"
	 viewBox="0 0 10949.9 2921" style="enable-background:new 0 0 10949.9 2921;" xml:space="preserve">
<g>
	<path d="M9906.9,1432c-71.7-35.3-136.9-81.9-193.9-138.4c-56.9-56.4-104.1-121.2-140-192.6c-6-11.8-18-19.2-31.3-19.2
		s-25.3,7.4-31.3,19.2c-36,71.3-83.1,136.1-140,192.6c-56.9,56.4-122.1,103-193.8,138.4c-11.9,5.9-19.5,18.1-19.5,31.4
		c0,13.3,7.6,25.5,19.5,31.4c71.6,35.3,136.8,81.9,193.8,138.4c56.9,56.4,104,121.2,140,192.5c6,11.8,18,19.2,31.3,19.2
		s25.3-7.4,31.2-19.2c36-71.3,83.1-136.1,140-192.5c57-56.4,122.2-103,193.9-138.3c12-5.9,19.5-18.1,19.5-31.4
		S9918.9,1437.9,9906.9,1432z M9663.7,1583.4c-47,46.6-87.9,98.3-122,154.5c-34.1-56.1-75-107.9-122-154.4
		c-46.7-46.3-98.5-86.5-154.5-120.1c56-33.6,107.8-73.8,154.5-120.1c47-46.6,87.9-98.3,122-154.5c34.2,56.1,75,107.9,122,154.5
		c46.7,46.3,98.5,86.5,154.6,120.1C9762.2,1496.9,9710.4,1537.1,9663.7,1583.4z"/>
	<rect x="3300.4" y="1075.6" width="72" height="779"/>
	<polygon points="4012.8,1461.8 3992,1461.8 3765.1,1075.6 3639.6,1075.6 3639.6,1854.6 3711.7,1854.6 3711.7,1152 3733.5,1152 
		3962.6,1543.6 4039,1543.6 4267,1152 4288.8,1152 4288.8,1854.6 4360.8,1854.6 4360.8,1075.6 4234.2,1075.6 	"/>
	<path d="M4818.7,1075.6l-278.2,779h75.3l88.4-252h358.9l88.4,252h77.5l-279.3-779H4818.7z M4727.1,1537.1l135.3-385.1h42.6
		l135.3,385.1H4727.1z"/>
	<path d="M5684.8,1516.4h264v27.3c0,77.1-20.9,139.7-62.7,187.7c-41.8,48-103.1,72-183.8,72c-48.8,0-91.8-9.5-129.3-28.4
		s-67.1-44.4-88.9-76.4c-21.8-32-38.2-67.8-49.1-107.5s-16.4-81.6-16.4-126c0-61.1,9.5-116.4,28.4-165.8
		c18.9-49.5,50.5-90.5,94.9-123.3s98.6-49.1,162.6-49.1c115.6,0,188.4,48,218.2,144h75.3c-15.3-65.5-48.5-116.7-99.8-153.8
		s-115.8-55.6-193.7-55.6c-112,0-199.7,37.8-262.9,113.5s-94.9,172.4-94.9,290.2c0,116.4,31.3,212.8,93.8,289.1
		c62.5,76.4,149.8,114.5,261.8,114.5c45.1,0,85.8-6.4,122.2-19.1c36.4-12.7,66.7-29.8,91.1-51.3c24.4-21.5,44.7-47.1,61.1-76.9
		c16.4-29.8,28.2-61.3,35.5-94.4s10.9-68.2,10.9-105.3v-70.9h-338.2V1516.4z"/>
	<rect x="6252.9" y="1075.6" width="72" height="779"/>
	<polygon points="7140.9,1778.2 7119.1,1778.2 6723.1,1075.6 6592.1,1075.6 6592.1,1854.6 6664.2,1854.6 6664.2,1152 6686,1152 
		7082,1854.6 7212.9,1854.6 7212.9,1075.6 7140.9,1075.6 	"/>
	<path d="M7670.9,1075.6l-278.2,779h75.3l88.4-252h358.9l88.4,252h77.5l-279.3-779H7670.9z M7579.2,1537.1l135.3-385.1h42.6
		l135.3,385.1H7579.2z"/>
	<polygon points="8124.5,1138.9 8387.5,1138.9 8387.5,1854.6 8459.5,1854.6 8459.5,1138.9 8721.3,1138.9 8721.3,1075.6 
		8124.5,1075.6 	"/>
	<rect x="8906.6" y="1075.6" width="72" height="779"/>
	<polygon points="10640.7,1073.6 10640.7,1776.2 10618.9,1776.2 10222.9,1073.6 10091.9,1073.6 10091.9,1852.6 10164,1852.6 
		10164,1150 10185.8,1150 10581.8,1852.6 10712.7,1852.6 10712.7,1073.6 	"/>
</g>
<g id="Layer_2_2_">
	<path d="M1150.2,1954.4c-40.8,0-82.2-2.5-124.1-7.4c-87.1-10.2-174.3-30.8-259.1-61.2c-83.5-29.9-162.4-68.5-234.3-114.6
		c-73.2-46.9-137.1-100.2-189.8-158.5c-0.2-0.2-0.4-0.5-0.7-0.7c-27.1-31.4-48.9-66.6-64.9-104.3c-16.2-38.3-25.7-77.5-28.1-116.4
		c-5.3-86.3,25.3-163.7,86.2-218c33.1-30.9,71.1-52.9,112.7-65.4c40.5-12.1,82.4-14.6,124.3-7.4c92.7,15.9,173.1,77.6,220.7,169.4
		c0.1,0.2,0.2,0.3,0.3,0.5c78.4,156.7,145.5,266.9,217.6,357.3c87.9,110.2,183.1,189,291.2,241c15.8,7.6,24.8,24.7,22.2,42
		c-2.6,17.4-16.3,31-33.7,33.6C1245,1951,1198.1,1954.4,1150.2,1954.4z M402.5,1559.4c95.9,105.8,234.9,195,391.4,251.1
		c79.1,28.4,160.4,47.6,241.5,57.1c40.2,4.7,79.8,7,118.8,6.8c-73.7-51.5-141.7-116.6-205.7-196.9
		c-75.7-94.9-145.6-209.4-226.5-371.2c-36-69.2-95.4-115.5-163.1-127.1c-29.7-5.1-59.2-3.3-87.8,5.2c-29.9,8.9-57.3,24.9-81.4,47.5
		c-0.3,0.2-0.5,0.5-0.8,0.7c-54.3,48.2-62.5,110.2-59.8,153.7C332.6,1446.1,359.4,1509.2,402.5,1559.4z"/>
	<path d="M2520.3,1841.2c-21,0-42.2-2.2-62.9-6.7c-44.3-9.5-86.2-29.1-121.1-56.6c-37-29.1-66-67.2-83.9-110.1
		c-54.7-125.5-125.4-243.8-204.5-342.3c-93.7-116.7-195.8-202.1-303.2-253.9c-15.8-7.6-24.8-24.7-22.2-42
		c2.6-17.4,16.3-31,33.7-33.6c172.4-25.6,350.5-8.8,514.8,48.5c83.6,29.2,163.4,68.6,237.2,117.3c76,50.1,145.7,110.1,207.2,178.3
		c57.9,63.4,89.8,152,85.4,237c-1.9,36-10.1,70.3-24.3,101.8c-15.3,33.6-37.2,63.3-65,88.2c-33.9,31.6-75.8,54.3-121.2,65.6
		C2567.6,1838.3,2544,1841.2,2520.3,1841.2z M1890,1064.7c77.5,54.2,151.2,124.7,220.3,210.7c83.5,104,158.1,228.7,215.6,360.7
		c0.1,0.2,0.2,0.4,0.2,0.6c12.9,30.9,33,57.3,59.7,78.4c25.4,20,55.9,34.2,88.4,41.2c32.3,6.9,65.7,6.5,96.7-1.2
		c32.8-8.2,61.8-23.9,86.2-46.7c0.3-0.2,0.5-0.5,0.8-0.7c48.5-43.1,61.1-97,63-134.6c3.3-64.1-20.8-131-64.7-179
		c-0.1-0.1-0.1-0.1-0.2-0.2c-57-63.2-121.6-118.8-192-165.2c-68.3-45-142.1-81.5-219.5-108.5C2131,1080.5,2010.3,1061.8,1890,1064.7
		z"/>
	<path d="M1015.3,1275.8c-0.9,0-1.8,0-2.7-0.1c-16.3-1.1-30.3-12-35.4-27.5c-23.1-70.7-36.5-143.7-39.7-216.8
		c-3-70.2,3.3-140.8,18.7-209.8c29.8-132.9,93.3-258.7,183.9-364c90.5-105.2,205.3-186.9,332.1-236.2
		c65.9-25.6,134.7-42.4,204.6-49.9c72.8-7.8,147-5.5,220.4,6.7c0.8,0.1,1.6,0.3,2.4,0.5c98.7,22.8,177.5,71.8,228,141.8
		c45.4,62.9,66.1,140.7,58.1,219.1c-7.8,76.5-42,147.7-96.3,200.5c-59.6,57.9-138.3,89.6-227.8,91.8c-0.3,0-0.6,0-1,0
		c-4.3,0-32.7,0.1-62.7,0.2c-36.1,0.1-77.1,0.2-84.7,0.2c-317.6,0-521.8,129.8-662.1,420.9
		C1044.6,1267.1,1030.6,1275.8,1015.3,1275.8z M1762.1,247c-25.7,0-51.3,1.4-76.7,4.1c-62.8,6.7-124.8,21.9-184.1,44.9
		c-114.6,44.5-218.4,118.5-300.4,213.8c-82,95.4-139.6,209.3-166.5,329.4c-13.9,62.1-19.6,125.7-16.8,188.8
		c1.4,32.9,5.1,65.7,11.1,98.4c66.4-111.2,144.7-195.4,237.6-256c121.8-79.4,268.1-118,447.1-118c7.4,0,48.3-0.1,84.4-0.2
		c30.4-0.1,56.8-0.2,62.5-0.2c68.7-1.7,128.7-25.7,173.5-69.2c40.8-39.7,66.6-93.4,72.5-151.2c6-58.9-9.4-117.2-43.3-164.2
		c-38.8-53.7-101.1-91.9-180-110.4C1842.7,250.3,1802.3,247,1762.1,247z"/>
	<path d="M1287.8,2763.2c-45,0-90.3-3.8-135.3-11.3c-0.8-0.1-1.6-0.3-2.4-0.5c-98.6-22.8-177.5-71.8-228-141.7
		c-45.4-62.9-66.1-140.7-58.1-219.1c7.8-76.5,42-147.8,96.3-200.6c59.6-57.9,138.3-89.7,227.8-91.9c0.3,0,0.6,0,1,0
		c4.3,0,32.7-0.1,62.7-0.2c36.1-0.1,77.1-0.2,84.7-0.2c317.6,0,521.8-129.8,662.1-420.9c7.1-14.7,22.4-23.6,38.7-22.5
		c16.3,1.1,30.3,12,35.4,27.5c23.2,70.7,36.5,143.7,39.7,216.8c3,70.2-3.2,140.8-18.7,209.8c-29.7,132.9-93.3,258.8-183.9,364.1
		c-90.5,105.2-205.3,186.9-332.1,236.2c-65.9,25.6-134.7,42.4-204.6,49.9C1344.7,2761.7,1316.3,2763.2,1287.8,2763.2z
		 M1166.9,2673.2c65.9,10.9,132.3,12.9,197.5,5.9c62.8-6.7,124.8-21.9,184.1-44.9c114.6-44.5,218.5-118.5,300.4-213.8
		c82-95.4,139.6-209.3,166.5-329.4c13.9-62.1,19.6-125.7,16.8-188.8c-1.4-32.9-5.1-65.8-11.1-98.4
		c-66.4,111.2-144.7,195.4-237.7,256c-121.8,79.4-268.1,118-447.1,118c-7.4,0-48.3,0.1-84.4,0.2c-30.4,0.1-56.8,0.2-62.5,0.2
		c-68.7,1.8-128.7,25.7-173.5,69.2c-40.8,39.7-66.6,93.4-72.5,151.3c-6,58.9,9.4,117.2,43.3,164.1
		C1025.7,2616.6,1087.9,2654.7,1166.9,2673.2z"/>
</g>
<g id="Layer_3">
	<path d="M1524.9,1825c-15.1,0-28.9-8.5-35.7-22c-35.7-70.8-82.5-135.2-139.1-191.2c-56.6-56.1-121.3-102.3-192.5-137.4
		c-13.7-6.7-22.3-20.6-22.3-35.9s8.6-29.1,22.3-35.9c71.2-35.2,136-81.4,192.5-137.5c56.6-56.1,103.4-120.4,139.1-191.3
		c6.8-13.5,20.6-22,35.7-22c15.1,0,28.9,8.5,35.7,22c35.7,70.9,82.5,135.2,139.1,191.3c56.6,56.1,121.4,102.3,192.6,137.4
		c13.7,6.7,22.3,20.6,22.3,35.9s-8.7,29.1-22.3,35.9c-71.2,35.1-136,81.3-192.6,137.4c-56.6,56-103.4,120.4-139.1,191.2
		C1553.8,1816.5,1540,1825,1524.9,1825z M1258,1438.5c53.7,32.9,103.4,71.9,148.4,116.5c45.3,44.9,85,94.7,118.5,148.4
		c33.5-53.8,73.2-103.5,118.5-148.5c45-44.6,94.7-83.6,148.4-116.5c-53.7-32.9-103.4-71.9-148.4-116.5
		c-45.3-44.9-85-94.7-118.5-148.5c-33.5,53.8-73.1,103.5-118.5,148.5C1361.4,1366.6,1311.7,1405.6,1258,1438.5z"/>
</g>
</svg>
