<svg width="29" height="28" viewBox="0 0 29 28" fill="none" xmlns="http://www.w3.org/2000/svg">
<path d="M5.54331 27L18.416 14.64L24.4737 20.82M5.54331 27H20.6877C23.1969 27 25.231 24.9248 25.231 22.365V14.64M5.54331 27C3.03411 27 1 24.9248 1 22.365V6.91494C1 4.35509 3.03411 2.27992 5.54331 2.27992H15.3871M23.7165 9.73987L23.7165 5.36993M23.7165 5.36993L23.7165 1M23.7165 5.36993L19.4331 5.36993M23.7165 5.36993L28 5.36993M10.0866 9.23245C10.0866 10.5124 9.06956 11.55 7.81496 11.55C6.56036 11.55 5.54331 10.5124 5.54331 9.23245C5.54331 7.95252 6.56036 6.91494 7.81496 6.91494C9.06956 6.91494 10.0866 7.95252 10.0866 9.23245Z" stroke="#C4C4C4" stroke-width="2" stroke-linecap="round" stroke-linejoin="round"/>
</svg>
