<svg width="38" height="39" viewBox="0 0 38 39" fill="none" xmlns="http://www.w3.org/2000/svg">
<path d="M6.625 33.375C7.48969 32.3797 11.5395 27.7993 12.7263 27.7993H25.2745C26.9943 27.7993 30.505 31.5961 31.375 32.9345M37 19.5C37 29.7173 28.9411 38 19 38C9.05888 38 1 29.7173 1 19.5C1 9.28273 9.05888 1 19 1C28.9411 1 37 9.28273 37 19.5ZM25.4478 13.1945C25.4478 9.66503 22.5488 6.78125 19.0005 6.78125C15.4523 6.78125 12.5533 9.66503 12.5533 13.1945C12.5533 16.724 15.4523 19.6078 19.0005 19.6078C22.5487 19.6078 25.4478 16.724 25.4478 13.1945Z" stroke="#8A8A8A"/>
</svg>
