<svg width="25" height="28" viewBox="0 0 25 28" fill="none" xmlns="http://www.w3.org/2000/svg">
<path fill-rule="evenodd" clip-rule="evenodd" d="M24.6398 14.3328C24.6398 14.8135 24.3811 15.257 23.9626 15.4935L2.27797 27.7501C1.83337 28.0014 1.2843 27.9766 0.864101 27.6864C0.443901 27.3961 0.226411 26.8913 0.304069 26.3866L2.1585 14.3328L0.304075 2.27902C0.226418 1.77425 0.443907 1.26948 0.864106 0.979224C1.2843 0.688968 1.83338 0.66423 2.27798 0.915524L23.9626 13.172C24.3811 13.4086 24.6398 13.8521 24.6398 14.3328ZM4.65141 15.6661L3.35746 24.0768L18.2378 15.6661L4.65141 15.6661ZM18.2378 12.9995L4.65141 12.9995L3.35747 4.58882L18.2378 12.9995Z" fill="#26D367"/>
</svg>
