<svg width="21" height="20" viewBox="0 0 21 20" fill="none" xmlns="http://www.w3.org/2000/svg">
<path d="M10.0234 1.58803C10.2183 1.19982 10.7817 1.19982 10.9766 1.58803L13.5005 6.61343C13.578 6.76759 13.7276 6.87444 13.9007 6.89916L19.5443 7.70502C19.9803 7.76727 20.1544 8.29375 19.8389 8.59592L15.7552 12.5076C15.6299 12.6276 15.5727 12.8005 15.6023 12.97L16.5663 18.4934C16.6408 18.9201 16.1851 19.2455 15.7951 19.044L10.7473 16.4362C10.5925 16.3562 10.4075 16.3562 10.2527 16.4362L5.20487 19.044C4.81493 19.2455 4.35919 18.9201 4.43366 18.4934L5.39771 12.97C5.42728 12.8005 5.37011 12.6276 5.24484 12.5076L1.16109 8.59592C0.845627 8.29375 1.01971 7.76727 1.45567 7.70502L7.09927 6.89916C7.27239 6.87444 7.42205 6.76759 7.49947 6.61343L10.0234 1.58803Z" stroke="black" stroke-linejoin="round"/>
</svg>
