<svg width="14" height="18" viewBox="0 0 14 18" fill="none" xmlns="http://www.w3.org/2000/svg">
<path d="M2.5 6.33333V5.57143C2.5 3.039 4.50714 1 7 1C9.49286 1 11.5 3.039 11.5 5.57143V6.33333M2.5 6.33333C1.675 6.33333 1 7.01905 1 7.85714V15.4762C1 16.3143 1.675 17 2.5 17H11.5C12.325 17 13 16.3143 13 15.4762V7.85714C13 7.01905 12.325 6.33333 11.5 6.33333M2.5 6.33333H11.5M7 10.1429C7.825 10.1429 8.5 10.8286 8.5 11.6667C8.5 12.5048 7.825 13.1905 7 13.1905C6.175 13.1905 5.5 12.5048 5.5 11.6667C5.5 10.8286 6.175 10.1429 7 10.1429Z" stroke="white"/>
</svg>
