<svg width="14" height="18" viewBox="0 0 14 18" fill="none" xmlns="http://www.w3.org/2000/svg">
<path d="M2 5.5V6H3V5.5H2ZM10.0843 3.2779C10.2378 3.50746 10.5483 3.56914 10.7779 3.41566C11.0075 3.26218 11.0691 2.95167 10.9157 2.7221L10.0843 3.2779ZM2.5 5.83333C1.39146 5.83333 0.5 6.75036 0.5 7.85714H1.5C1.5 7.28774 1.95854 6.83333 2.5 6.83333V5.83333ZM0.5 7.85714V15.4762H1.5V7.85714H0.5ZM0.5 15.4762C0.5 16.583 1.39146 17.5 2.5 17.5V16.5C1.95854 16.5 1.5 16.0456 1.5 15.4762H0.5ZM2.5 17.5H11.5V16.5H2.5V17.5ZM11.5 17.5C12.6085 17.5 13.5 16.583 13.5 15.4762H12.5C12.5 16.0456 12.0415 16.5 11.5 16.5V17.5ZM13.5 15.4762V7.85714H12.5V15.4762H13.5ZM13.5 7.85714C13.5 6.75036 12.6085 5.83333 11.5 5.83333V6.83333C12.0415 6.83333 12.5 7.28774 12.5 7.85714H13.5ZM11.5 5.83333H2.5V6.83333H11.5V5.83333ZM7 0.5C4.23388 0.5 2 2.68856 2 5.5H3C3 3.24659 4.78041 1.5 7 1.5V0.5ZM10.9157 2.7221C10.0371 1.40802 8.75643 0.5 7 0.5V1.5C8.34927 1.5 9.34657 2.17437 10.0843 3.2779L10.9157 2.7221Z" fill="white"/>
</svg>
