<svg width="14" height="18" viewBox="0 0 14 18" fill="none" xmlns="http://www.w3.org/2000/svg">
<path d="M2.00005 5.5V6H3.00005V5.5H2.00005ZM10.0844 3.2779C10.2379 3.50746 10.5484 3.56914 10.7779 3.41566C11.0075 3.26218 11.0692 2.95167 10.9157 2.7221L10.0844 3.2779ZM4.55355 11.8464C4.35829 11.6512 4.04171 11.6512 3.84645 11.8464C3.65118 12.0417 3.65118 12.3583 3.84645 12.5536L4.55355 11.8464ZM6 14L5.64645 14.3536L6 14.7071L6.35355 14.3536L6 14ZM10.3536 10.3536C10.5488 10.1583 10.5488 9.84171 10.3536 9.64645C10.1583 9.45118 9.84171 9.45118 9.64645 9.64645L10.3536 10.3536ZM2.50005 5.83333C1.39151 5.83333 0.50005 6.75036 0.50005 7.85714H1.50005C1.50005 7.28774 1.95859 6.83333 2.50005 6.83333V5.83333ZM0.50005 7.85714V15.4762H1.50005V7.85714H0.50005ZM0.50005 15.4762C0.50005 16.583 1.39151 17.5 2.50005 17.5V16.5C1.95859 16.5 1.50005 16.0456 1.50005 15.4762H0.50005ZM2.50005 17.5H11.5V16.5H2.50005V17.5ZM11.5 17.5C12.6086 17.5 13.5 16.583 13.5 15.4762H12.5C12.5 16.0456 12.0415 16.5 11.5 16.5V17.5ZM13.5 15.4762V7.85714H12.5V15.4762H13.5ZM13.5 7.85714C13.5 6.75036 12.6086 5.83333 11.5 5.83333V6.83333C12.0415 6.83333 12.5 7.28774 12.5 7.85714H13.5ZM11.5 5.83333H2.50005V6.83333H11.5V5.83333ZM7.00005 0.5C4.23393 0.5 2.00005 2.68856 2.00005 5.5H3.00005C3.00005 3.24659 4.78046 1.5 7.00005 1.5V0.5ZM10.9157 2.7221C10.0372 1.40802 8.75648 0.5 7.00005 0.5V1.5C8.34932 1.5 9.34661 2.17437 10.0844 3.2779L10.9157 2.7221ZM3.84645 12.5536L5.64645 14.3536L6.35355 13.6464L4.55355 11.8464L3.84645 12.5536ZM6.35355 14.3536L10.3536 10.3536L9.64645 9.64645L5.64645 13.6464L6.35355 14.3536Z" fill="black"/>
</svg>
